<mxfile host="app.diagrams.net" modified="2023-04-02T16:32:48.849Z" agent="Mozilla/5.0 (Windows NT 10.0; Win64; x64) AppleWebKit/537.36 (KHTML, like Gecko) Chrome/111.0.0.0 Safari/537.36" etag="X42kwhB9j2Ay6FE2gNWI" version="21.1.2" type="gitlab">
  <diagram name="Page-1" id="03018318-947c-dd8e-b7a3-06fadd420f32">
    <mxGraphModel dx="2200" dy="1140" grid="1" gridSize="10" guides="1" tooltips="1" connect="1" arrows="1" fold="1" page="1" pageScale="1" pageWidth="1100" pageHeight="850" background="none" math="0" shadow="0">
      <root>
        <mxCell id="0" />
        <mxCell id="1" parent="0" />
        <mxCell id="677b7b8949515195-2" value="ALL NEWS" style="whiteSpace=wrap;html=1;rounded=0;shadow=0;labelBackgroundColor=none;strokeWidth=1;fontFamily=Verdana;fontSize=28;align=center;comic=1;" parent="1" vertex="1">
          <mxGeometry x="40" y="60" width="190" height="50" as="geometry" />
        </mxCell>
        <mxCell id="677b7b8949515195-9" value="" style="line;strokeWidth=1;html=1;rounded=0;shadow=0;labelBackgroundColor=none;fillColor=none;fontFamily=Verdana;fontSize=14;fontColor=#000000;align=center;comic=1;" parent="1" vertex="1">
          <mxGeometry x="20" y="480" width="1060" height="10" as="geometry" />
        </mxCell>
        <mxCell id="K9Sqh1QOj7CW8bjJ8mNa-1" value="LOGO" style="whiteSpace=wrap;html=1;rounded=0;shadow=0;labelBackgroundColor=none;strokeWidth=1;fontFamily=Verdana;fontSize=28;align=center;comic=1;" parent="1" vertex="1">
          <mxGeometry x="360" y="60" width="190" height="50" as="geometry" />
        </mxCell>
        <mxCell id="K9Sqh1QOj7CW8bjJ8mNa-2" value="LOGIN" style="whiteSpace=wrap;html=1;rounded=0;shadow=0;labelBackgroundColor=none;strokeWidth=1;fontFamily=Verdana;fontSize=28;align=center;comic=1;" parent="1" vertex="1">
          <mxGeometry x="683" y="60" width="190" height="50" as="geometry" />
        </mxCell>
        <mxCell id="K9Sqh1QOj7CW8bjJ8mNa-3" value="SIGN UP" style="whiteSpace=wrap;html=1;rounded=0;shadow=0;labelBackgroundColor=none;strokeWidth=1;fontFamily=Verdana;fontSize=28;align=center;comic=1;" parent="1" vertex="1">
          <mxGeometry x="880" y="60" width="190" height="50" as="geometry" />
        </mxCell>
        <mxCell id="K9Sqh1QOj7CW8bjJ8mNa-9" value="" style="whiteSpace=wrap;html=1;rounded=0;shadow=0;labelBackgroundColor=none;strokeWidth=1;fontFamily=Verdana;fontSize=28;align=center;comic=1;gradientColor=none;fillColor=none;" parent="1" vertex="1">
          <mxGeometry x="30" y="40" width="1060" height="560" as="geometry" />
        </mxCell>
        <mxCell id="K9Sqh1QOj7CW8bjJ8mNa-10" value="" style="line;strokeWidth=1;html=1;rounded=0;shadow=0;labelBackgroundColor=none;fillColor=none;fontFamily=Verdana;fontSize=14;fontColor=#000000;align=center;comic=1;" parent="1" vertex="1">
          <mxGeometry x="30" y="150" width="1060" height="10" as="geometry" />
        </mxCell>
        <mxCell id="K9Sqh1QOj7CW8bjJ8mNa-11" value="" style="whiteSpace=wrap;html=1;rounded=0;shadow=0;labelBackgroundColor=none;strokeWidth=1;fontFamily=Verdana;fontSize=28;align=center;comic=1;fillColor=none;" parent="1" vertex="1">
          <mxGeometry x="70" y="180" width="270" height="260" as="geometry" />
        </mxCell>
        <mxCell id="K9Sqh1QOj7CW8bjJ8mNa-12" value="NEWS" style="whiteSpace=wrap;html=1;rounded=0;shadow=0;labelBackgroundColor=none;strokeWidth=1;fontFamily=Verdana;fontSize=28;align=center;comic=1;" parent="1" vertex="1">
          <mxGeometry x="140" y="220" width="190" height="50" as="geometry" />
        </mxCell>
        <mxCell id="K9Sqh1QOj7CW8bjJ8mNa-13" value="DETAILS" style="whiteSpace=wrap;html=1;rounded=0;shadow=0;labelBackgroundColor=none;strokeWidth=1;fontFamily=Verdana;fontSize=28;align=center;comic=1;" parent="1" vertex="1">
          <mxGeometry x="80" y="360" width="190" height="50" as="geometry" />
        </mxCell>
        <mxCell id="K9Sqh1QOj7CW8bjJ8mNa-14" value="" style="whiteSpace=wrap;html=1;rounded=0;shadow=0;labelBackgroundColor=none;strokeWidth=1;fontFamily=Verdana;fontSize=28;align=center;comic=1;fillColor=none;" parent="1" vertex="1">
          <mxGeometry x="430" y="180" width="270" height="260" as="geometry" />
        </mxCell>
        <mxCell id="K9Sqh1QOj7CW8bjJ8mNa-15" value="" style="whiteSpace=wrap;html=1;rounded=0;shadow=0;labelBackgroundColor=none;strokeWidth=1;fontFamily=Verdana;fontSize=28;align=center;comic=1;fillColor=none;" parent="1" vertex="1">
          <mxGeometry x="780" y="180" width="270" height="260" as="geometry" />
        </mxCell>
        <mxCell id="K9Sqh1QOj7CW8bjJ8mNa-16" value="NEWS" style="whiteSpace=wrap;html=1;rounded=0;shadow=0;labelBackgroundColor=none;strokeWidth=1;fontFamily=Verdana;fontSize=28;align=center;comic=1;" parent="1" vertex="1">
          <mxGeometry x="500" y="220" width="190" height="50" as="geometry" />
        </mxCell>
        <mxCell id="K9Sqh1QOj7CW8bjJ8mNa-17" value="DETAILS" style="whiteSpace=wrap;html=1;rounded=0;shadow=0;labelBackgroundColor=none;strokeWidth=1;fontFamily=Verdana;fontSize=28;align=center;comic=1;" parent="1" vertex="1">
          <mxGeometry x="440" y="360" width="190" height="50" as="geometry" />
        </mxCell>
        <mxCell id="K9Sqh1QOj7CW8bjJ8mNa-18" value="DETAILS" style="whiteSpace=wrap;html=1;rounded=0;shadow=0;labelBackgroundColor=none;strokeWidth=1;fontFamily=Verdana;fontSize=28;align=center;comic=1;" parent="1" vertex="1">
          <mxGeometry x="790" y="360" width="190" height="50" as="geometry" />
        </mxCell>
        <mxCell id="K9Sqh1QOj7CW8bjJ8mNa-19" value="NEWS" style="whiteSpace=wrap;html=1;rounded=0;shadow=0;labelBackgroundColor=none;strokeWidth=1;fontFamily=Verdana;fontSize=28;align=center;comic=1;" parent="1" vertex="1">
          <mxGeometry x="850" y="220" width="190" height="50" as="geometry" />
        </mxCell>
        <mxCell id="K9Sqh1QOj7CW8bjJ8mNa-20" value="LOGO" style="whiteSpace=wrap;html=1;rounded=0;shadow=0;labelBackgroundColor=none;strokeWidth=1;fontFamily=Verdana;fontSize=28;align=center;comic=1;" parent="1" vertex="1">
          <mxGeometry x="40" y="500" width="190" height="50" as="geometry" />
        </mxCell>
        <mxCell id="K9Sqh1QOj7CW8bjJ8mNa-21" value="AGILE SOFTWARE MANAGEMENT SYSTEM" style="text;html=1;strokeColor=none;fillColor=none;align=center;verticalAlign=middle;whiteSpace=wrap;rounded=0;" parent="1" vertex="1">
          <mxGeometry x="40" y="560" width="270" height="30" as="geometry" />
        </mxCell>
        <mxCell id="K9Sqh1QOj7CW8bjJ8mNa-22" value="Â© E-Pharmacist, Autumn Semester 2022!" style="text;html=1;strokeColor=none;fillColor=none;align=center;verticalAlign=middle;whiteSpace=wrap;rounded=0;" parent="1" vertex="1">
          <mxGeometry x="810" y="560" width="270" height="30" as="geometry" />
        </mxCell>
        <mxCell id="K9Sqh1QOj7CW8bjJ8mNa-23" value="" style="whiteSpace=wrap;html=1;rounded=0;shadow=0;labelBackgroundColor=none;strokeWidth=1;fontFamily=Verdana;fontSize=28;align=center;comic=1;gradientColor=none;fillColor=none;" parent="1" vertex="1">
          <mxGeometry x="30" y="630" width="1060" height="580" as="geometry" />
        </mxCell>
        <mxCell id="K9Sqh1QOj7CW8bjJ8mNa-24" value="ALL NEWS" style="whiteSpace=wrap;html=1;rounded=0;shadow=0;labelBackgroundColor=none;strokeWidth=1;fontFamily=Verdana;fontSize=28;align=center;comic=1;" parent="1" vertex="1">
          <mxGeometry x="50" y="650" width="190" height="50" as="geometry" />
        </mxCell>
        <mxCell id="K9Sqh1QOj7CW8bjJ8mNa-25" value="LOGO" style="whiteSpace=wrap;html=1;rounded=0;shadow=0;labelBackgroundColor=none;strokeWidth=1;fontFamily=Verdana;fontSize=28;align=center;comic=1;" parent="1" vertex="1">
          <mxGeometry x="880" y="650" width="190" height="50" as="geometry" />
        </mxCell>
        <mxCell id="K9Sqh1QOj7CW8bjJ8mNa-26" value="" style="line;strokeWidth=1;html=1;rounded=0;shadow=0;labelBackgroundColor=none;fillColor=none;fontFamily=Verdana;fontSize=14;fontColor=#000000;align=center;comic=1;" parent="1" vertex="1">
          <mxGeometry x="30" y="1090" width="1060" height="10" as="geometry" />
        </mxCell>
        <mxCell id="K9Sqh1QOj7CW8bjJ8mNa-27" value="" style="whiteSpace=wrap;html=1;rounded=0;shadow=0;labelBackgroundColor=none;strokeWidth=1;fontFamily=Verdana;fontSize=28;align=center;comic=1;fillColor=none;" parent="1" vertex="1">
          <mxGeometry x="360" y="760" width="380" height="330" as="geometry" />
        </mxCell>
        <mxCell id="K9Sqh1QOj7CW8bjJ8mNa-28" value="&lt;font style=&quot;font-size: 19px;&quot;&gt;LOG INTO YOUR ACCOUNT&lt;/font&gt;" style="text;html=1;strokeColor=none;fillColor=none;align=center;verticalAlign=middle;whiteSpace=wrap;rounded=0;" parent="1" vertex="1">
          <mxGeometry x="410" y="780" width="280" height="50" as="geometry" />
        </mxCell>
        <mxCell id="K9Sqh1QOj7CW8bjJ8mNa-29" value="&lt;font style=&quot;font-size: 19px;&quot;&gt;EMAIL ADDRESS&lt;/font&gt;" style="text;html=1;strokeColor=none;fillColor=none;align=center;verticalAlign=middle;whiteSpace=wrap;rounded=0;" parent="1" vertex="1">
          <mxGeometry x="320" y="820" width="280" height="50" as="geometry" />
        </mxCell>
        <mxCell id="K9Sqh1QOj7CW8bjJ8mNa-30" value="" style="whiteSpace=wrap;html=1;rounded=0;shadow=0;labelBackgroundColor=none;strokeWidth=1;fontFamily=Verdana;fontSize=28;align=center;comic=1;" parent="1" vertex="1">
          <mxGeometry x="380" y="870" width="330" height="35" as="geometry" />
        </mxCell>
        <mxCell id="K9Sqh1QOj7CW8bjJ8mNa-31" value="&lt;font style=&quot;font-size: 19px;&quot;&gt;PASSWORD&lt;/font&gt;" style="text;html=1;strokeColor=none;fillColor=none;align=center;verticalAlign=middle;whiteSpace=wrap;rounded=0;" parent="1" vertex="1">
          <mxGeometry x="300" y="920" width="280" height="50" as="geometry" />
        </mxCell>
        <mxCell id="K9Sqh1QOj7CW8bjJ8mNa-32" value="" style="whiteSpace=wrap;html=1;rounded=0;shadow=0;labelBackgroundColor=none;strokeWidth=1;fontFamily=Verdana;fontSize=28;align=center;comic=1;" parent="1" vertex="1">
          <mxGeometry x="380" y="970" width="330" height="35" as="geometry" />
        </mxCell>
        <mxCell id="K9Sqh1QOj7CW8bjJ8mNa-33" value="LOGIN" style="whiteSpace=wrap;html=1;rounded=0;shadow=0;labelBackgroundColor=none;strokeWidth=1;fontFamily=Verdana;fontSize=28;align=center;comic=1;fillColor=#B266FF;" parent="1" vertex="1">
          <mxGeometry x="380" y="1030" width="190" height="50" as="geometry" />
        </mxCell>
        <mxCell id="K9Sqh1QOj7CW8bjJ8mNa-34" value="" style="line;strokeWidth=1;html=1;rounded=0;shadow=0;labelBackgroundColor=none;fillColor=none;fontFamily=Verdana;fontSize=14;fontColor=#000000;align=center;comic=1;" parent="1" vertex="1">
          <mxGeometry x="40" y="720" width="1060" height="10" as="geometry" />
        </mxCell>
        <mxCell id="K9Sqh1QOj7CW8bjJ8mNa-35" value="LOGO" style="whiteSpace=wrap;html=1;rounded=0;shadow=0;labelBackgroundColor=none;strokeWidth=1;fontFamily=Verdana;fontSize=28;align=center;comic=1;" parent="1" vertex="1">
          <mxGeometry x="40" y="1110" width="190" height="50" as="geometry" />
        </mxCell>
        <mxCell id="K9Sqh1QOj7CW8bjJ8mNa-36" value="AGILE SOFTWARE MANAGEMENT SYSTEM" style="text;html=1;strokeColor=none;fillColor=none;align=center;verticalAlign=middle;whiteSpace=wrap;rounded=0;" parent="1" vertex="1">
          <mxGeometry x="40" y="1170" width="270" height="30" as="geometry" />
        </mxCell>
        <mxCell id="K9Sqh1QOj7CW8bjJ8mNa-37" value="Â© E-Pharmacist, Autumn Semester 2022!" style="text;html=1;strokeColor=none;fillColor=none;align=center;verticalAlign=middle;whiteSpace=wrap;rounded=0;" parent="1" vertex="1">
          <mxGeometry x="820" y="1170" width="270" height="30" as="geometry" />
        </mxCell>
        <mxCell id="K9Sqh1QOj7CW8bjJ8mNa-38" value="" style="whiteSpace=wrap;html=1;rounded=0;shadow=0;labelBackgroundColor=none;strokeWidth=1;fontFamily=Verdana;fontSize=28;align=center;comic=1;gradientColor=none;fillColor=none;" parent="1" vertex="1">
          <mxGeometry x="30" y="1240" width="1060" height="880" as="geometry" />
        </mxCell>
        <mxCell id="K9Sqh1QOj7CW8bjJ8mNa-39" value="" style="line;strokeWidth=1;html=1;rounded=0;shadow=0;labelBackgroundColor=none;fillColor=none;fontFamily=Verdana;fontSize=14;fontColor=#000000;align=center;comic=1;" parent="1" vertex="1">
          <mxGeometry x="30" y="1340" width="1060" height="10" as="geometry" />
        </mxCell>
        <mxCell id="K9Sqh1QOj7CW8bjJ8mNa-40" value="ALL NEWS" style="whiteSpace=wrap;html=1;rounded=0;shadow=0;labelBackgroundColor=none;strokeWidth=1;fontFamily=Verdana;fontSize=28;align=center;comic=1;" parent="1" vertex="1">
          <mxGeometry x="50" y="1260" width="190" height="50" as="geometry" />
        </mxCell>
        <mxCell id="K9Sqh1QOj7CW8bjJ8mNa-41" value="LOGO" style="whiteSpace=wrap;html=1;rounded=0;shadow=0;labelBackgroundColor=none;strokeWidth=1;fontFamily=Verdana;fontSize=28;align=center;comic=1;" parent="1" vertex="1">
          <mxGeometry x="880" y="1260" width="190" height="50" as="geometry" />
        </mxCell>
        <mxCell id="K9Sqh1QOj7CW8bjJ8mNa-42" value="" style="whiteSpace=wrap;html=1;rounded=0;shadow=0;labelBackgroundColor=none;strokeWidth=1;fontFamily=Verdana;fontSize=28;align=center;comic=1;fillColor=none;" parent="1" vertex="1">
          <mxGeometry x="355" y="1370" width="445" height="560" as="geometry" />
        </mxCell>
        <mxCell id="K9Sqh1QOj7CW8bjJ8mNa-44" value="&lt;span style=&quot;font-size: 19px;&quot;&gt;&amp;nbsp;&lt;span style=&quot;white-space: pre;&quot;&gt; &lt;/span&gt;CREATE A NEW ACCOUNT&lt;/span&gt;" style="text;html=1;strokeColor=none;fillColor=none;align=center;verticalAlign=middle;whiteSpace=wrap;rounded=0;" parent="1" vertex="1">
          <mxGeometry x="320" y="1370" width="370" height="50" as="geometry" />
        </mxCell>
        <mxCell id="gzDqZ4E-mKy6lS4Jyvj3-1" value="" style="whiteSpace=wrap;html=1;rounded=0;shadow=0;labelBackgroundColor=none;strokeWidth=1;fontFamily=Verdana;fontSize=28;align=center;comic=1;" parent="1" vertex="1">
          <mxGeometry x="380" y="1450" width="330" height="35" as="geometry" />
        </mxCell>
        <mxCell id="gzDqZ4E-mKy6lS4Jyvj3-2" value="&lt;span style=&quot;font-size: 19px;&quot;&gt;Name&lt;/span&gt;" style="text;html=1;strokeColor=none;fillColor=none;align=center;verticalAlign=middle;whiteSpace=wrap;rounded=0;" parent="1" vertex="1">
          <mxGeometry x="270" y="1410" width="280" height="50" as="geometry" />
        </mxCell>
        <mxCell id="gzDqZ4E-mKy6lS4Jyvj3-3" value="&lt;span style=&quot;font-size: 19px;&quot;&gt;Email address&lt;/span&gt;" style="text;html=1;strokeColor=none;fillColor=none;align=center;verticalAlign=middle;whiteSpace=wrap;rounded=0;" parent="1" vertex="1">
          <mxGeometry x="300" y="1490" width="280" height="50" as="geometry" />
        </mxCell>
        <mxCell id="gzDqZ4E-mKy6lS4Jyvj3-4" value="" style="whiteSpace=wrap;html=1;rounded=0;shadow=0;labelBackgroundColor=none;strokeWidth=1;fontFamily=Verdana;fontSize=28;align=center;comic=1;" parent="1" vertex="1">
          <mxGeometry x="380" y="1530" width="330" height="35" as="geometry" />
        </mxCell>
        <mxCell id="gzDqZ4E-mKy6lS4Jyvj3-5" value="" style="whiteSpace=wrap;html=1;rounded=0;shadow=0;labelBackgroundColor=none;strokeWidth=1;fontFamily=Verdana;fontSize=28;align=center;comic=1;" parent="1" vertex="1">
          <mxGeometry x="380" y="1610" width="330" height="35" as="geometry" />
        </mxCell>
        <mxCell id="gzDqZ4E-mKy6lS4Jyvj3-6" value="&lt;span style=&quot;font-size: 19px;&quot;&gt;Password&lt;/span&gt;" style="text;html=1;strokeColor=none;fillColor=none;align=center;verticalAlign=middle;whiteSpace=wrap;rounded=0;" parent="1" vertex="1">
          <mxGeometry x="280" y="1565" width="280" height="50" as="geometry" />
        </mxCell>
        <mxCell id="gzDqZ4E-mKy6lS4Jyvj3-7" value="&lt;span style=&quot;font-size: 19px;&quot;&gt;Confirm Password&lt;/span&gt;" style="text;html=1;strokeColor=none;fillColor=none;align=center;verticalAlign=middle;whiteSpace=wrap;rounded=0;" parent="1" vertex="1">
          <mxGeometry x="315" y="1645" width="280" height="50" as="geometry" />
        </mxCell>
        <mxCell id="gzDqZ4E-mKy6lS4Jyvj3-8" value="" style="whiteSpace=wrap;html=1;rounded=0;shadow=0;labelBackgroundColor=none;strokeWidth=1;fontFamily=Verdana;fontSize=28;align=center;comic=1;" parent="1" vertex="1">
          <mxGeometry x="380" y="1695" width="330" height="35" as="geometry" />
        </mxCell>
        <mxCell id="gzDqZ4E-mKy6lS4Jyvj3-9" value="&lt;span style=&quot;font-size: 19px;&quot;&gt;Role&lt;/span&gt;" style="text;html=1;strokeColor=none;fillColor=none;align=center;verticalAlign=middle;whiteSpace=wrap;rounded=0;" parent="1" vertex="1">
          <mxGeometry x="260" y="1750" width="280" height="50" as="geometry" />
        </mxCell>
        <mxCell id="gzDqZ4E-mKy6lS4Jyvj3-12" value="" style="ellipse;whiteSpace=wrap;html=1;" parent="1" vertex="1">
          <mxGeometry x="380" y="1790" width="10" height="10" as="geometry" />
        </mxCell>
        <mxCell id="gzDqZ4E-mKy6lS4Jyvj3-13" value="&lt;span style=&quot;font-size: 19px;&quot;&gt;&lt;font color=&quot;#b8b8b8&quot;&gt;User&lt;/font&gt;&lt;/span&gt;" style="text;html=1;strokeColor=none;fillColor=none;align=center;verticalAlign=middle;whiteSpace=wrap;rounded=0;" parent="1" vertex="1">
          <mxGeometry x="270" y="1770" width="280" height="50" as="geometry" />
        </mxCell>
        <mxCell id="gzDqZ4E-mKy6lS4Jyvj3-14" value="" style="ellipse;whiteSpace=wrap;html=1;" parent="1" vertex="1">
          <mxGeometry x="440" y="1790" width="10" height="10" as="geometry" />
        </mxCell>
        <mxCell id="gzDqZ4E-mKy6lS4Jyvj3-15" value="" style="ellipse;whiteSpace=wrap;html=1;" parent="1" vertex="1">
          <mxGeometry x="665" y="1790" width="10" height="10" as="geometry" />
        </mxCell>
        <mxCell id="gzDqZ4E-mKy6lS4Jyvj3-16" value="&lt;span style=&quot;font-size: 19px;&quot;&gt;&lt;font color=&quot;#b8b8b8&quot;&gt;Subject Matter Expert&lt;/font&gt;&lt;/span&gt;" style="text;html=1;strokeColor=none;fillColor=none;align=center;verticalAlign=middle;whiteSpace=wrap;rounded=0;" parent="1" vertex="1">
          <mxGeometry x="403" y="1770" width="280" height="50" as="geometry" />
        </mxCell>
        <mxCell id="gzDqZ4E-mKy6lS4Jyvj3-20" value="&lt;span style=&quot;font-size: 19px;&quot;&gt;&lt;font color=&quot;#b8b8b8&quot;&gt;Pharmacist&lt;/font&gt;&lt;/span&gt;" style="text;html=1;strokeColor=none;fillColor=none;align=center;verticalAlign=middle;whiteSpace=wrap;rounded=0;" parent="1" vertex="1">
          <mxGeometry x="590" y="1770" width="280" height="50" as="geometry" />
        </mxCell>
        <mxCell id="gzDqZ4E-mKy6lS4Jyvj3-22" value="SIGNUP" style="whiteSpace=wrap;html=1;rounded=0;shadow=0;labelBackgroundColor=none;strokeWidth=1;fontFamily=Verdana;fontSize=28;align=center;comic=1;fillColor=#B266FF;" parent="1" vertex="1">
          <mxGeometry x="380" y="1850" width="190" height="50" as="geometry" />
        </mxCell>
        <mxCell id="gzDqZ4E-mKy6lS4Jyvj3-23" value="" style="line;strokeWidth=1;html=1;rounded=0;shadow=0;labelBackgroundColor=none;fillColor=none;fontFamily=Verdana;fontSize=14;fontColor=#000000;align=center;comic=1;" parent="1" vertex="1">
          <mxGeometry x="35" y="1980" width="1060" height="10" as="geometry" />
        </mxCell>
        <mxCell id="gzDqZ4E-mKy6lS4Jyvj3-24" value="LOGO" style="whiteSpace=wrap;html=1;rounded=0;shadow=0;labelBackgroundColor=none;strokeWidth=1;fontFamily=Verdana;fontSize=28;align=center;comic=1;" parent="1" vertex="1">
          <mxGeometry x="50" y="2000" width="190" height="50" as="geometry" />
        </mxCell>
        <mxCell id="gzDqZ4E-mKy6lS4Jyvj3-25" value="AGILE SOFTWARE MANAGEMENT SYSTEM" style="text;html=1;strokeColor=none;fillColor=none;align=center;verticalAlign=middle;whiteSpace=wrap;rounded=0;" parent="1" vertex="1">
          <mxGeometry x="50" y="2070" width="270" height="30" as="geometry" />
        </mxCell>
        <mxCell id="gzDqZ4E-mKy6lS4Jyvj3-26" value="Â© E-Pharmacist, Autumn Semester 2022!" style="text;html=1;strokeColor=none;fillColor=none;align=center;verticalAlign=middle;whiteSpace=wrap;rounded=0;" parent="1" vertex="1">
          <mxGeometry x="820" y="2070" width="270" height="30" as="geometry" />
        </mxCell>
      </root>
    </mxGraphModel>
  </diagram>
</mxfile>
